<?xml version="1.0" standalone="no"?>
<!DOCTYPE svg PUBLIC "-//W3C//DTD SVG 20010904//EN"
 "http://www.w3.org/TR/2001/REC-SVG-20010904/DTD/svg10.dtd">
<svg version="1.0" xmlns="http://www.w3.org/2000/svg"
 width="474.000000pt" height="474.000000pt" viewBox="0 0 474.000000 474.000000"
 preserveAspectRatio="xMidYMid meet">
<metadata>
Created by potrace 1.16, written by Peter Selinger 2001-2019
</metadata>
<g transform="translate(0.000000,474.000000) scale(0.100000,-0.100000)"
fill="#000000" stroke="none">
<path d="M2165 4389 c-820 -86 -1514 -666 -1741 -1454 -177 -614 -57 -1271
326 -1780 324 -430 794 -709 1335 -790 149 -23 424 -23 570 -1 310 48 584 153
840 324 607 405 954 1117 896 1836 -22 265 -85 495 -200 731 -136 276 -293
478 -526 673 -412 346 -968 517 -1500 461z m520 -173 c344 -63 661 -214 920
-440 l40 -35 -164 -159 -164 -158 -134 45 c-73 24 -133 50 -133 56 0 7 -15 41
-33 76 -19 35 -37 76 -40 92 -6 22 -13 27 -37 27 -28 0 -30 2 -30 40 0 36 -3
41 -40 60 -21 11 -46 20 -54 20 -25 0 -63 -88 -64 -147 -1 -51 0 -53 44 -82
25 -16 58 -32 72 -36 22 -5 31 -17 50 -64 27 -71 27 -78 3 -118 -15 -24 -28
-32 -53 -35 -28 -2 -33 -7 -33 -28 0 -20 6 -26 30 -30 24 -4 32 -13 50 -59 11
-29 30 -60 43 -69 21 -13 22 -13 22 8 0 19 2 20 15 10 23 -19 30 13 17 83 -14
72 -9 83 13 31 l15 -37 28 26 28 27 79 -29 c91 -33 88 -29 140 -193 l38 -117
-58 -63 c-221 -238 -355 -619 -381 -1075 l-7 -123 196 0 197 0 0 85 0 85 40 0
c22 0 40 -4 40 -8 0 -44 -105 -376 -125 -396 -13 -13 -204 -78 -270 -92 -28
-6 -27 -4 23 41 28 25 52 54 52 63 0 25 -47 72 -89 89 -63 26 -121 80 -121
113 0 43 -16 77 -55 118 -20 20 -45 54 -57 75 -14 24 -32 40 -48 43 -14 3 -52
18 -85 33 -92 44 -130 54 -155 41 -11 -6 -25 -8 -30 -5 -15 9 -12 48 4 71 19
27 10 64 -15 64 -30 0 -34 28 -10 71 21 36 21 40 5 46 -9 3 -24 1 -33 -5 -28
-21 -60 -32 -76 -26 -33 13 -31 152 3 187 15 15 23 16 47 7 15 -6 36 -8 46 -5
10 3 36 -3 59 -15 31 -16 40 -25 35 -39 -8 -25 11 -71 29 -71 11 0 16 15 18
62 3 62 3 62 48 88 25 14 51 39 59 56 14 31 70 94 83 94 4 0 24 11 44 25 41
28 64 32 64 11 0 -24 16 -27 41 -7 13 10 33 20 43 22 29 6 30 24 1 39 -27 14
-34 51 -12 68 6 5 38 13 69 16 31 4 62 13 68 21 13 16 5 66 -20 115 -10 20
-22 71 -26 114 -7 77 -21 97 -42 59 -16 -28 -39 -8 -45 40 -9 64 -25 94 -65
117 -19 12 -36 19 -38 17 -8 -8 -37 -124 -43 -174 -5 -38 -14 -58 -34 -77 -15
-14 -27 -34 -27 -45 0 -11 -3 -26 -6 -35 -11 -29 -24 -5 -24 44 0 43 -5 55
-41 97 -23 26 -49 55 -58 63 -11 10 -18 33 -20 68 -3 66 18 102 89 156 28 21
57 51 64 65 18 34 25 186 9 186 -22 0 -26 15 -24 92 2 76 3 79 42 118 43 45
49 69 20 85 -45 24 -81 2 -81 -50 0 -11 -11 -47 -25 -80 -14 -33 -25 -72 -25
-87 0 -22 -7 -31 -30 -41 -16 -8 -30 -20 -30 -28 0 -11 -9 -14 -32 -12 -24 2
-35 11 -47 35 -11 22 -23 33 -38 33 -13 0 -23 -3 -23 -7 0 -5 -4 -14 -8 -21
-12 -17 -72 13 -72 37 0 9 -23 37 -51 62 -28 24 -66 59 -86 78 -37 36 -43 36
-156 15 -36 -6 -40 -4 -95 53 -36 38 -70 63 -89 67 -16 4 -43 21 -59 37 -16
17 -40 35 -52 40 -33 13 -98 -6 -124 -36 -11 -13 -31 -26 -44 -29 -28 -7 -31
-33 -10 -74 7 -15 17 -37 20 -49 7 -22 7 -23 -22 -6 -16 9 -36 14 -46 10 -43
-17 -26 -84 24 -94 39 -7 36 -33 -5 -46 -16 -5 -36 -14 -42 -20 -18 -13 -16
-82 2 -97 8 -7 15 -19 15 -27 0 -7 -7 -16 -15 -19 -16 -7 -21 -34 -6 -34 30 0
130 54 140 76 11 25 33 34 28 12 -3 -19 63 -11 78 8 10 14 13 13 29 -11 9 -14
16 -31 14 -37 -2 -6 -57 -26 -123 -45 -65 -19 -146 -45 -179 -59 l-60 -24
-164 163 -164 164 82 66 c271 221 582 359 930 412 126 19 450 14 575 -9z
m-1414 -1038 l-41 -123 -66 -13 c-128 -24 -288 -118 -369 -217 -59 -73 -104
-154 -132 -240 -33 -102 -37 -263 -9 -365 49 -181 185 -349 346 -428 47 -23
114 -48 149 -56 35 -8 67 -19 71 -23 4 -4 26 -68 49 -142 l43 -134 -162 -161
-161 -161 -51 55 c-112 123 -251 361 -321 550 -132 354 -152 767 -57 1126 70
259 190 493 369 717 l54 68 165 -164 164 -165 -41 -124z m2571 346 c179 -224
315 -526 368 -816 30 -162 37 -407 16 -568 -46 -347 -180 -666 -390 -929 -89
-111 -65 -117 -248 66 l-161 161 36 109 c21 59 50 160 66 223 28 113 30 115
59 118 35 4 42 -12 42 -105 l0 -63 190 0 190 0 0 99 c0 175 -42 427 -101 611
-32 99 -119 277 -179 366 -29 43 -89 115 -134 159 l-80 80 -44 134 -44 134
158 159 c88 87 164 157 171 156 7 -2 45 -44 85 -94z m-1943 -158 c7 -8 14 -50
17 -93 7 -145 9 -160 28 -195 18 -33 18 -35 -8 -116 -14 -46 -26 -99 -26 -119
0 -56 21 -166 36 -189 25 -37 46 -124 34 -138 -7 -10 -6 -17 5 -26 8 -7 15
-25 15 -41 0 -32 19 -79 32 -79 11 0 10 5 -7 116 -9 53 -14 99 -11 101 3 3 12
3 21 0 10 -4 15 -19 15 -44 0 -40 17 -101 45 -167 11 -27 15 -53 11 -79 -8
-46 10 -75 80 -132 36 -30 55 -38 80 -37 26 2 37 -4 62 -35 16 -21 40 -60 52
-86 20 -41 27 -48 46 -44 17 3 25 -1 29 -14 10 -32 -6 -62 -57 -110 l-50 -47
7 -98 c8 -106 19 -145 59 -197 31 -41 32 -47 5 -127 l-22 -63 -141 6 c-160 7
-329 34 -492 77 -134 36 -276 87 -286 103 -8 13 -78 217 -78 228 0 4 19 9 43
12 100 14 260 102 346 191 l44 44 -20 25 c-10 14 -69 78 -130 142 l-112 118
-43 -44 c-64 -66 -126 -92 -218 -93 -121 -1 -205 51 -256 159 -30 63 -32 161
-5 221 47 103 140 164 251 164 95 0 153 -23 219 -87 30 -29 58 -50 61 -46 4 5
63 68 131 142 l124 134 -77 72 c-81 77 -176 130 -283 161 -33 9 -61 17 -62 19
-4 2 53 168 65 192 12 21 111 59 275 104 120 32 131 34 146 15z m-507 -417
c12 -7 17 -17 13 -28 -4 -14 2 -22 25 -31 17 -7 33 -10 37 -6 3 3 -1 6 -10 6
-11 0 -17 8 -17 23 0 30 10 40 25 27 7 -6 29 -11 49 -12 26 -1 33 -4 24 -11
-9 -6 -6 -7 10 -4 12 3 20 1 16 -4 -5 -8 17 -14 39 -10 5 1 5 -8 2 -20 -6 -19
-4 -21 18 -17 22 4 25 2 21 -18 -3 -17 0 -21 14 -17 13 3 22 -4 30 -22 9 -20
9 -25 0 -19 -8 5 -9 2 -4 -12 4 -10 4 -16 1 -12 -9 9 -45 -23 -39 -34 3 -4 -1
-8 -9 -8 -7 0 -23 -13 -35 -30 -27 -36 -44 -38 -72 -8 -11 12 -20 18 -20 14 0
-4 -6 -1 -14 6 -9 9 -10 15 -3 20 6 4 -6 5 -26 4 -23 -2 -34 1 -30 7 4 6 -2 8
-15 5 -12 -4 -22 -2 -22 2 0 16 -85 21 -150 9 -36 -6 -84 -12 -107 -12 -23 0
-40 -4 -37 -8 7 -11 -45 -60 -57 -53 -5 3 -9 2 -8 -3 3 -13 -14 -47 -28 -56
-7 -4 -13 -17 -13 -27 0 -13 -7 -20 -19 -20 -22 0 -37 -16 -21 -22 6 -2 1 -20
-11 -42 -15 -28 -17 -41 -9 -46 8 -5 9 -13 2 -26 -14 -29 -22 -93 -11 -99 5
-4 9 -22 9 -41 0 -21 6 -37 14 -40 10 -4 13 -15 9 -40 -5 -30 -3 -34 16 -34
14 0 23 -8 27 -25 3 -13 15 -27 25 -30 10 -4 19 -15 19 -26 0 -10 7 -19 15
-19 21 0 65 -22 60 -30 -2 -4 9 -8 25 -9 17 0 43 -2 60 -2 16 -1 27 -5 25 -10
-8 -12 36 -22 47 -11 5 5 27 8 48 5 62 -9 128 5 135 27 8 25 38 14 32 -11 -3
-12 0 -19 9 -19 13 0 17 17 17 72 0 23 55 13 79 -14 10 -11 22 -17 28 -13 5 3
10 0 10 -8 0 -12 9 -26 50 -74 12 -15 13 -27 3 -29 -31 -6 -52 -19 -63 -40 -7
-13 -17 -21 -22 -18 -4 3 -8 0 -8 -5 0 -6 -5 -11 -11 -11 -5 0 -7 5 -4 10 11
17 -11 11 -35 -10 -13 -11 -35 -23 -48 -27 -18 -4 -20 -8 -10 -14 8 -6 -1 -9
-27 -9 -22 0 -60 -5 -84 -11 -33 -7 -46 -7 -52 2 -6 10 -16 10 -43 2 -30 -9
-34 -9 -29 5 5 13 -2 14 -48 9 -63 -8 -138 1 -117 14 9 6 4 10 -17 15 -36 7
-77 38 -74 56 4 29 -2 38 -24 38 -13 0 -29 -6 -36 -12 -10 -11 -15 -10 -24 3
-7 9 -22 21 -34 28 -28 14 -30 31 -4 24 10 -3 22 0 25 5 8 13 -14 28 -23 16
-8 -12 -42 -14 -35 -3 3 5 1 9 -4 9 -6 0 -6 14 0 38 6 20 11 53 12 72 1 32 -1
35 -24 32 -15 -1 -30 4 -37 15 -12 16 -13 15 -13 -3 0 -16 -2 -17 -10 -4 -9
13 -10 13 -11 0 -4 -43 -22 90 -25 190 -4 131 3 200 20 200 18 0 39 45 34 72
-4 21 -1 24 22 20 31 -4 46 20 29 46 -9 15 -10 14 -6 -5 5 -21 -14 -38 -27
-26 -11 11 -7 20 22 48 15 16 21 25 13 20 -10 -5 -12 -4 -7 3 5 9 13 9 27 1
19 -10 19 -9 9 10 -6 12 -9 21 -8 22 2 0 11 2 21 4 21 4 48 36 41 47 -3 4 2 5
11 2 10 -4 14 -1 12 7 -2 8 -2 10 1 6 2 -4 9 -4 15 2 7 5 25 11 42 13 20 2 31
9 34 23 4 24 21 37 39 30 7 -3 10 0 7 5 -9 15 8 12 31 -5 21 -16 109 -21 99
-5 -3 6 -22 10 -41 10 -43 0 -44 17 -3 28 48 12 199 13 221 1z m2078 -34 c0
-8 12 -18 28 -21 32 -8 72 -42 72 -62 0 -8 6 -12 15 -8 8 3 15 2 16 -2 0 -4 2
-19 3 -34 1 -15 8 -33 15 -40 11 -11 12 -9 2 9 -14 27 -14 33 -1 33 6 0 9 -3
8 -7 -3 -16 15 -43 25 -36 6 3 7 1 3 -6 -4 -6 -5 -24 -1 -40 5 -23 10 -27 30
-23 19 3 25 0 25 -12 0 -10 5 -14 11 -10 8 5 10 -1 6 -18 -5 -17 -2 -30 8 -38
8 -7 15 -23 15 -35 0 -12 6 -28 14 -35 8 -6 27 -48 42 -93 15 -45 31 -87 36
-94 5 -6 6 -29 3 -50 -5 -28 -4 -34 4 -23 8 12 11 8 11 -17 0 -17 -4 -35 -10
-38 -17 -10 -12 -48 5 -41 12 4 15 -5 15 -47 0 -61 14 -91 30 -67 7 10 10 -26
10 -115 l0 -131 -75 0 c-72 0 -75 1 -75 23 0 13 -4 23 -10 23 -5 0 -10 -7 -10
-15 0 -18 -20 -20 -21 -2 0 6 -4 33 -8 59 -6 34 -4 45 4 41 7 -2 15 6 19 19 9
34 7 58 -4 58 -5 0 -10 -10 -10 -23 0 -14 -6 -24 -15 -24 -8 0 -12 3 -11 6 2
3 -98 5 -222 3 -210 -3 -228 -4 -243 -22 -9 -11 -19 -17 -23 -15 -3 3 -2 0 3
-7 7 -7 6 -18 0 -30 -6 -11 -8 -32 -4 -47 6 -28 5 -29 -47 -35 -29 -4 -70 -10
-92 -13 -25 -3 -36 -2 -32 5 3 5 -1 16 -10 23 -13 10 -14 30 -10 113 3 56 10
102 15 104 6 2 7 12 2 25 -6 15 -4 26 5 35 8 7 14 27 14 45 1 30 2 31 15 13
14 -18 15 -18 34 5 21 25 29 89 11 89 -5 0 -10 -11 -10 -24 0 -23 -16 -44 -26
-34 -8 9 -17 73 -8 65 7 -7 34 90 37 135 1 9 4 15 8 12 9 -5 19 21 19 50 0 22
39 69 41 50 0 -5 5 0 10 11 7 15 7 11 3 -14 -4 -24 -3 -32 6 -26 6 4 10 21 8
39 -1 17 1 51 5 76 6 36 12 46 28 47 22 2 49 20 49 34 0 4 -7 15 -16 23 -12
13 -12 16 -2 16 8 0 20 16 27 35 7 19 17 33 22 30 5 -4 9 1 9 9 0 9 7 16 15
16 8 0 19 8 24 19 11 20 68 34 74 17 2 -6 6 -6 11 2 4 6 -2 19 -14 29 -20 18
-28 39 -10 28 6 -3 10 -1 10 4 0 6 9 11 20 11 11 0 20 -7 20 -15z m-1976
-1619 c85 -32 291 -90 391 -111 100 -20 313 -45 384 -45 47 0 52 -2 46 -17 -4
-10 -16 -45 -27 -78 -11 -33 -28 -78 -38 -100 -11 -22 -30 -65 -44 -94 -15
-30 -26 -66 -26 -80 0 -75 53 -161 99 -161 30 0 34 16 16 64 -15 40 -16 46 -1
75 9 17 30 41 47 53 26 19 29 28 25 53 -5 26 -1 36 31 65 48 44 76 60 107 60
23 0 66 34 66 51 0 4 10 11 21 14 12 4 50 33 84 65 53 49 68 58 112 64 83 11
320 72 431 111 l103 37 162 -161 162 -161 -30 -25 c-323 -274 -659 -421 -1057
-464 -342 -38 -712 31 -1029 189 -158 80 -426 273 -417 301 4 13 302 318 310
319 4 0 37 -11 72 -24z"/>
<path d="M2277 4103 c-4 -3 -7 -15 -7 -25 0 -10 -11 -36 -25 -57 -21 -34 -23
-43 -12 -70 12 -34 50 -44 61 -16 12 32 31 15 31 -28 0 -38 4 -43 33 -56 41
-19 41 -33 0 -29 -38 4 -46 -14 -19 -41 12 -12 21 -27 21 -35 0 -20 33 -29 79
-21 28 5 41 2 51 -9 7 -9 21 -16 32 -16 15 0 18 5 13 20 -5 14 -2 20 9 20 20
0 20 3 -3 40 -21 36 -18 120 7 158 11 16 12 26 4 34 -11 11 -40 -11 -60 -47
-10 -18 -11 -18 -12 -2 0 10 -6 17 -14 15 -18 -4 -76 60 -76 83 0 27 -11 49
-25 49 -6 0 -20 9 -30 20 -18 20 -46 26 -58 13z"/>
<path d="M3430 2610 c0 -11 -5 -20 -11 -20 -5 0 -8 -4 -4 -9 3 -6 -4 -8 -15
-6 -24 5 -60 -50 -37 -58 9 -3 5 -18 -12 -53 -14 -27 -24 -52 -23 -56 1 -5 -3
-8 -8 -8 -5 0 -10 -8 -10 -17 0 -24 -23 -83 -32 -83 -9 0 -11 -64 -2 -95 5
-20 12 -21 172 -19 92 0 175 3 184 6 22 5 60 48 55 62 -2 6 -11 10 -20 10 -10
-1 -18 9 -22 26 -3 16 -13 31 -21 34 -8 3 -14 19 -14 40 0 19 -7 47 -14 63 -8
15 -18 37 -21 48 -5 16 -8 17 -15 5 -7 -10 -8 -1 -6 28 2 30 0 42 -10 42 -13
0 -18 12 -15 33 1 4 -10 12 -24 17 -14 5 -25 14 -25 20 0 5 -11 10 -25 10 -18
0 -25 -5 -25 -20z m74 -216 c20 -47 36 -92 36 -100 0 -11 -18 -14 -80 -14 -44
0 -80 2 -80 5 0 14 78 195 84 195 2 0 20 -39 40 -86z"/>
</g>
</svg>
